solid OpenSCAD_Model
  facet normal 0 1 -0
    outer loop
      vertex 1.61658 -2.8 12
      vertex -1.61658 -2.8 14
      vertex 1.61658 -2.8 14
    endloop
  endfacet
  facet normal 0 1 0
    outer loop
      vertex -1.61658 -2.8 14
      vertex 1.61658 -2.8 12
      vertex -1.61658 -2.8 12
    endloop
  endfacet
  facet normal -0.866026 0.5 0
    outer loop
      vertex 1.61658 -2.8 12
      vertex 3.23316 0 14
      vertex 3.23316 0 12
    endloop
  endfacet
  facet normal -0.866026 0.5 0
    outer loop
      vertex 3.23316 0 14
      vertex 1.61658 -2.8 12
      vertex 1.61658 -2.8 14
    endloop
  endfacet
  facet normal 0 -1 0
    outer loop
      vertex -1.61658 2.8 12
      vertex 1.61658 2.8 14
      vertex -1.61658 2.8 14
    endloop
  endfacet
  facet normal 0 -1 -0
    outer loop
      vertex 1.61658 2.8 14
      vertex -1.61658 2.8 12
      vertex 1.61658 2.8 12
    endloop
  endfacet
  facet normal -0.866026 -0.5 0
    outer loop
      vertex 3.23316 0 12
      vertex 1.61658 2.8 14
      vertex 1.61658 2.8 12
    endloop
  endfacet
  facet normal -0.866026 -0.5 0
    outer loop
      vertex 1.61658 2.8 14
      vertex 3.23316 0 12
      vertex 3.23316 0 14
    endloop
  endfacet
  facet normal 0.866026 -0.5 0
    outer loop
      vertex -3.23316 0 14
      vertex -1.61658 2.8 12
      vertex -1.61658 2.8 14
    endloop
  endfacet
  facet normal 0.866026 -0.5 0
    outer loop
      vertex -1.61658 2.8 12
      vertex -3.23316 0 14
      vertex -3.23316 0 12
    endloop
  endfacet
  facet normal 0.866026 0.5 0
    outer loop
      vertex -1.61658 -2.8 14
      vertex -3.23316 0 12
      vertex -3.23316 0 14
    endloop
  endfacet
  facet normal 0.866026 0.5 0
    outer loop
      vertex -3.23316 0 12
      vertex -1.61658 -2.8 14
      vertex -1.61658 -2.8 12
    endloop
  endfacet
  facet normal -0 0 1
    outer loop
      vertex 1.60755 0.665869 12
      vertex 3.23316 0 12
      vertex 1.61658 2.8 12
    endloop
  endfacet
  facet normal 0 0 1
    outer loop
      vertex 3.23316 0 12
      vertex 1.60755 0.665869 12
      vertex 1.74 0 12
    endloop
  endfacet
  facet normal 0 0 1
    outer loop
      vertex 1.61658 2.8 12
      vertex 1.23037 1.23037 12
      vertex 1.60755 0.665869 12
    endloop
  endfacet
  facet normal 0 0 1
    outer loop
      vertex 1.61658 2.8 12
      vertex 0.665869 1.60755 12
      vertex 1.23037 1.23037 12
    endloop
  endfacet
  facet normal 0 0 1
    outer loop
      vertex 1.61658 2.8 12
      vertex 0 1.74 12
      vertex 0.665869 1.60755 12
    endloop
  endfacet
  facet normal -0 0 1
    outer loop
      vertex -1.61658 2.8 12
      vertex 0 1.74 12
      vertex 1.61658 2.8 12
    endloop
  endfacet
  facet normal 0 0 1
    outer loop
      vertex 0 1.74 12
      vertex -1.61658 2.8 12
      vertex -0.665869 1.60755 12
    endloop
  endfacet
  facet normal 0 0 1
    outer loop
      vertex -1.61658 2.8 12
      vertex -1.23037 1.23037 12
      vertex -0.665869 1.60755 12
    endloop
  endfacet
  facet normal 0 0 1
    outer loop
      vertex -1.61658 2.8 12
      vertex -1.60755 0.665869 12
      vertex -1.23037 1.23037 12
    endloop
  endfacet
  facet normal 0 0 1
    outer loop
      vertex -3.23316 0 12
      vertex -1.60755 0.665869 12
      vertex -1.61658 2.8 12
    endloop
  endfacet
  facet normal 0 0 1
    outer loop
      vertex -1.60755 0.665869 12
      vertex -3.23316 0 12
      vertex -1.74 0 12
    endloop
  endfacet
  facet normal 0 0 1
    outer loop
      vertex 1.60755 -0.665869 12
      vertex 3.23316 0 12
      vertex 1.74 0 12
    endloop
  endfacet
  facet normal 0 0 1
    outer loop
      vertex 3.23316 0 12
      vertex 1.60755 -0.665869 12
      vertex 1.61658 -2.8 12
    endloop
  endfacet
  facet normal -0 0 1
    outer loop
      vertex 1.23037 -1.23037 12
      vertex 1.61658 -2.8 12
      vertex 1.60755 -0.665869 12
    endloop
  endfacet
  facet normal -0 0 1
    outer loop
      vertex 0.665869 -1.60755 12
      vertex 1.61658 -2.8 12
      vertex 1.23037 -1.23037 12
    endloop
  endfacet
  facet normal -0 0 1
    outer loop
      vertex 0 -1.74 12
      vertex 1.61658 -2.8 12
      vertex 0.665869 -1.60755 12
    endloop
  endfacet
  facet normal 0 0 1
    outer loop
      vertex -1.61658 -2.8 12
      vertex 0 -1.74 12
      vertex -0.665869 -1.60755 12
    endloop
  endfacet
  facet normal 0 0 1
    outer loop
      vertex 0 -1.74 12
      vertex -1.61658 -2.8 12
      vertex 1.61658 -2.8 12
    endloop
  endfacet
  facet normal 0 0 1
    outer loop
      vertex -1.23037 -1.23037 12
      vertex -1.61658 -2.8 12
      vertex -0.665869 -1.60755 12
    endloop
  endfacet
  facet normal 0 0 1
    outer loop
      vertex -1.60755 -0.665869 12
      vertex -1.61658 -2.8 12
      vertex -1.23037 -1.23037 12
    endloop
  endfacet
  facet normal -0 0 1
    outer loop
      vertex -3.23316 0 12
      vertex -1.60755 -0.665869 12
      vertex -1.74 0 12
    endloop
  endfacet
  facet normal 0 0 1
    outer loop
      vertex -1.60755 -0.665869 12
      vertex -3.23316 0 12
      vertex -1.61658 -2.8 12
    endloop
  endfacet
  facet normal 0.555563 -0.831475 0
    outer loop
      vertex -1.23037 1.23037 0
      vertex -0.665869 1.60755 12
      vertex -1.23037 1.23037 12
    endloop
  endfacet
  facet normal 0.555563 -0.831475 0
    outer loop
      vertex -0.665869 1.60755 12
      vertex -1.23037 1.23037 0
      vertex -0.665869 1.60755 0
    endloop
  endfacet
  facet normal -0.831475 -0.555563 0
    outer loop
      vertex 1.60755 0.665869 0
      vertex 1.23037 1.23037 12
      vertex 1.23037 1.23037 0
    endloop
  endfacet
  facet normal -0.831475 -0.555563 0
    outer loop
      vertex 1.23037 1.23037 12
      vertex 1.60755 0.665869 0
      vertex 1.60755 0.665869 12
    endloop
  endfacet
  facet normal -0.980785 -0.195091 0
    outer loop
      vertex 1.74 0 0
      vertex 1.60755 0.665869 12
      vertex 1.60755 0.665869 0
    endloop
  endfacet
  facet normal -0.980785 -0.195091 0
    outer loop
      vertex 1.60755 0.665869 12
      vertex 1.74 0 0
      vertex 1.74 0 12
    endloop
  endfacet
  facet normal 0.831475 -0.555563 0
    outer loop
      vertex -1.60755 0.665869 12
      vertex -1.23037 1.23037 0
      vertex -1.23037 1.23037 12
    endloop
  endfacet
  facet normal 0.831475 -0.555563 0
    outer loop
      vertex -1.23037 1.23037 0
      vertex -1.60755 0.665869 12
      vertex -1.60755 0.665869 0
    endloop
  endfacet
  facet normal 0.195091 0.980785 -0
    outer loop
      vertex 0 -1.74 0
      vertex -0.665869 -1.60755 12
      vertex 0 -1.74 12
    endloop
  endfacet
  facet normal 0.195091 0.980785 0
    outer loop
      vertex -0.665869 -1.60755 12
      vertex 0 -1.74 0
      vertex -0.665869 -1.60755 0
    endloop
  endfacet
  facet normal -0.195091 0.980785 0
    outer loop
      vertex 0.665869 -1.60755 0
      vertex 0 -1.74 12
      vertex 0.665869 -1.60755 12
    endloop
  endfacet
  facet normal -0.195091 0.980785 0
    outer loop
      vertex 0 -1.74 12
      vertex 0.665869 -1.60755 0
      vertex 0 -1.74 0
    endloop
  endfacet
  facet normal -0.555563 0.831475 0
    outer loop
      vertex 1.23037 -1.23037 0
      vertex 0.665869 -1.60755 12
      vertex 1.23037 -1.23037 12
    endloop
  endfacet
  facet normal -0.555563 0.831475 0
    outer loop
      vertex 0.665869 -1.60755 12
      vertex 1.23037 -1.23037 0
      vertex 0.665869 -1.60755 0
    endloop
  endfacet
  facet normal -0.831475 0.555563 0
    outer loop
      vertex 1.23037 -1.23037 0
      vertex 1.60755 -0.665869 12
      vertex 1.60755 -0.665869 0
    endloop
  endfacet
  facet normal -0.831475 0.555563 0
    outer loop
      vertex 1.60755 -0.665869 12
      vertex 1.23037 -1.23037 0
      vertex 1.23037 -1.23037 12
    endloop
  endfacet
  facet normal 0.980785 -0.195091 0
    outer loop
      vertex -1.74 0 12
      vertex -1.60755 0.665869 0
      vertex -1.60755 0.665869 12
    endloop
  endfacet
  facet normal 0.980785 -0.195091 0
    outer loop
      vertex -1.60755 0.665869 0
      vertex -1.74 0 12
      vertex -1.74 0 0
    endloop
  endfacet
  facet normal -0.980785 0.195091 0
    outer loop
      vertex 1.60755 -0.665869 0
      vertex 1.74 0 12
      vertex 1.74 0 0
    endloop
  endfacet
  facet normal -0.980785 0.195091 0
    outer loop
      vertex 1.74 0 12
      vertex 1.60755 -0.665869 0
      vertex 1.60755 -0.665869 12
    endloop
  endfacet
  facet normal 0.195091 -0.980785 0
    outer loop
      vertex -0.665869 1.60755 0
      vertex 0 1.74 12
      vertex -0.665869 1.60755 12
    endloop
  endfacet
  facet normal 0.195091 -0.980785 0
    outer loop
      vertex 0 1.74 12
      vertex -0.665869 1.60755 0
      vertex 0 1.74 0
    endloop
  endfacet
  facet normal -0.195091 -0.980785 0
    outer loop
      vertex 0 1.74 0
      vertex 0.665869 1.60755 12
      vertex 0 1.74 12
    endloop
  endfacet
  facet normal -0.195091 -0.980785 -0
    outer loop
      vertex 0.665869 1.60755 12
      vertex 0 1.74 0
      vertex 0.665869 1.60755 0
    endloop
  endfacet
  facet normal -0.555563 -0.831475 0
    outer loop
      vertex 0.665869 1.60755 0
      vertex 1.23037 1.23037 12
      vertex 0.665869 1.60755 12
    endloop
  endfacet
  facet normal -0.555563 -0.831475 -0
    outer loop
      vertex 1.23037 1.23037 12
      vertex 0.665869 1.60755 0
      vertex 1.23037 1.23037 0
    endloop
  endfacet
  facet normal 0.831475 0.555563 0
    outer loop
      vertex -1.23037 -1.23037 12
      vertex -1.60755 -0.665869 0
      vertex -1.60755 -0.665869 12
    endloop
  endfacet
  facet normal 0.831475 0.555563 0
    outer loop
      vertex -1.60755 -0.665869 0
      vertex -1.23037 -1.23037 12
      vertex -1.23037 -1.23037 0
    endloop
  endfacet
  facet normal 0.980785 0.195091 0
    outer loop
      vertex -1.60755 -0.665869 12
      vertex -1.74 0 0
      vertex -1.74 0 12
    endloop
  endfacet
  facet normal 0.980785 0.195091 0
    outer loop
      vertex -1.74 0 0
      vertex -1.60755 -0.665869 12
      vertex -1.60755 -0.665869 0
    endloop
  endfacet
  facet normal 0.555563 0.831475 -0
    outer loop
      vertex -0.665869 -1.60755 0
      vertex -1.23037 -1.23037 12
      vertex -0.665869 -1.60755 12
    endloop
  endfacet
  facet normal 0.555563 0.831475 0
    outer loop
      vertex -1.23037 -1.23037 12
      vertex -0.665869 -1.60755 0
      vertex -1.23037 -1.23037 0
    endloop
  endfacet
  facet normal 0.376314 0.9085 -0.1817
    outer loop
      vertex 3.53553 3.53553 5
      vertex 0 4 0
      vertex 0 5 5
    endloop
  endfacet
  facet normal -0.9085 0.376314 -0.1817
    outer loop
      vertex -4 0 0
      vertex -5 0 5
      vertex -3.53553 3.53553 5
    endloop
  endfacet
  facet normal 0.376312 0.908501 -0.181698
    outer loop
      vertex 2.82843 2.82843 0
      vertex 0 4 0
      vertex 3.53553 3.53553 5
    endloop
  endfacet
  facet normal -0.376314 0.9085 -0.1817
    outer loop
      vertex 0 4 0
      vertex -3.53553 3.53553 5
      vertex 0 5 5
    endloop
  endfacet
  facet normal 0.376314 -0.9085 -0.1817
    outer loop
      vertex 3.53553 -3.53553 5
      vertex 0 -5 5
      vertex 0 -4 0
    endloop
  endfacet
  facet normal 0.923879 0.382685 0
    outer loop
      vertex 5 0 14
      vertex 3.53553 3.53553 5
      vertex 3.53553 3.53553 14
    endloop
  endfacet
  facet normal 0.923879 0.382685 0
    outer loop
      vertex 3.53553 3.53553 5
      vertex 5 0 14
      vertex 5 0 5
    endloop
  endfacet
  facet normal 0.908501 -0.376312 -0.181698
    outer loop
      vertex 3.53553 -3.53553 5
      vertex 2.82843 -2.82843 0
      vertex 4 0 0
    endloop
  endfacet
  facet normal -0.923879 -0.382685 0
    outer loop
      vertex -3.53553 -3.53553 5
      vertex -5 0 14
      vertex -5 0 5
    endloop
  endfacet
  facet normal -0.923879 -0.382685 0
    outer loop
      vertex -5 0 14
      vertex -3.53553 -3.53553 5
      vertex -3.53553 -3.53553 14
    endloop
  endfacet
  facet normal 0.908501 0.376312 -0.181698
    outer loop
      vertex 4 0 0
      vertex 2.82843 2.82843 0
      vertex 3.53553 3.53553 5
    endloop
  endfacet
  facet normal -0.382685 0.923879 0
    outer loop
      vertex 0 5 5
      vertex -3.53553 3.53553 14
      vertex 0 5 14
    endloop
  endfacet
  facet normal -0.382685 0.923879 0
    outer loop
      vertex -3.53553 3.53553 14
      vertex 0 5 5
      vertex -3.53553 3.53553 5
    endloop
  endfacet
  facet normal -0.376312 -0.908501 -0.181698
    outer loop
      vertex 0 -4 0
      vertex -3.53553 -3.53553 5
      vertex -2.82843 -2.82843 0
    endloop
  endfacet
  facet normal 0.923879 -0.382685 0
    outer loop
      vertex 3.53553 -3.53553 14
      vertex 5 0 5
      vertex 5 0 14
    endloop
  endfacet
  facet normal 0.923879 -0.382685 0
    outer loop
      vertex 5 0 5
      vertex 3.53553 -3.53553 14
      vertex 3.53553 -3.53553 5
    endloop
  endfacet
  facet normal 0.382685 0.923879 -0
    outer loop
      vertex 3.53553 3.53553 5
      vertex 0 5 14
      vertex 3.53553 3.53553 14
    endloop
  endfacet
  facet normal 0.382685 0.923879 0
    outer loop
      vertex 0 5 14
      vertex 3.53553 3.53553 5
      vertex 0 5 5
    endloop
  endfacet
  facet normal 0.9085 -0.376314 -0.1817
    outer loop
      vertex 5 0 5
      vertex 3.53553 -3.53553 5
      vertex 4 0 0
    endloop
  endfacet
  facet normal 0.9085 0.376314 -0.1817
    outer loop
      vertex 4 0 0
      vertex 3.53553 3.53553 5
      vertex 5 0 5
    endloop
  endfacet
  facet normal -0.923879 0.382685 0
    outer loop
      vertex -5 0 5
      vertex -3.53553 3.53553 14
      vertex -3.53553 3.53553 5
    endloop
  endfacet
  facet normal -0.923879 0.382685 0
    outer loop
      vertex -3.53553 3.53553 14
      vertex -5 0 5
      vertex -5 0 14
    endloop
  endfacet
  facet normal 0.382685 -0.923879 0
    outer loop
      vertex 0 -5 5
      vertex 3.53553 -3.53553 14
      vertex 0 -5 14
    endloop
  endfacet
  facet normal 0.382685 -0.923879 0
    outer loop
      vertex 3.53553 -3.53553 14
      vertex 0 -5 5
      vertex 3.53553 -3.53553 5
    endloop
  endfacet
  facet normal 0 0 1
    outer loop
      vertex 3.23316 0 14
      vertex 5 0 14
      vertex 3.53553 3.53553 14
    endloop
  endfacet
  facet normal 0 0 1
    outer loop
      vertex 5 0 14
      vertex 3.23316 0 14
      vertex 3.53553 -3.53553 14
    endloop
  endfacet
  facet normal 0 0 1
    outer loop
      vertex 3.53553 3.53553 14
      vertex 1.61658 2.8 14
      vertex 3.23316 0 14
    endloop
  endfacet
  facet normal 0 0 1
    outer loop
      vertex 0 5 14
      vertex 1.61658 2.8 14
      vertex 3.53553 3.53553 14
    endloop
  endfacet
  facet normal 0 0 1
    outer loop
      vertex 0 5 14
      vertex -1.61658 2.8 14
      vertex 1.61658 2.8 14
    endloop
  endfacet
  facet normal 0 0 1
    outer loop
      vertex -1.61658 2.8 14
      vertex -3.53553 3.53553 14
      vertex -3.23316 0 14
    endloop
  endfacet
  facet normal -0 0 1
    outer loop
      vertex -3.53553 3.53553 14
      vertex -1.61658 2.8 14
      vertex 0 5 14
    endloop
  endfacet
  facet normal -0 0 1
    outer loop
      vertex 1.61658 -2.8 14
      vertex 3.53553 -3.53553 14
      vertex 3.23316 0 14
    endloop
  endfacet
  facet normal 0 0 1
    outer loop
      vertex 1.61658 -2.8 14
      vertex 0 -5 14
      vertex 3.53553 -3.53553 14
    endloop
  endfacet
  facet normal -0 0 1
    outer loop
      vertex -1.61658 -2.8 14
      vertex 0 -5 14
      vertex 1.61658 -2.8 14
    endloop
  endfacet
  facet normal 0 0 1
    outer loop
      vertex -1.61658 -2.8 14
      vertex -3.53553 -3.53553 14
      vertex 0 -5 14
    endloop
  endfacet
  facet normal 0 0 1
    outer loop
      vertex -3.23316 0 14
      vertex -3.53553 -3.53553 14
      vertex -1.61658 -2.8 14
    endloop
  endfacet
  facet normal 0 0 1
    outer loop
      vertex -5 0 14
      vertex -3.23316 0 14
      vertex -3.53553 3.53553 14
    endloop
  endfacet
  facet normal 0 0 1
    outer loop
      vertex -3.23316 0 14
      vertex -5 0 14
      vertex -3.53553 -3.53553 14
    endloop
  endfacet
  facet normal -0.376314 -0.9085 -0.1817
    outer loop
      vertex 0 -5 5
      vertex -3.53553 -3.53553 5
      vertex 0 -4 0
    endloop
  endfacet
  facet normal 0.376312 -0.908501 -0.181698
    outer loop
      vertex 3.53553 -3.53553 5
      vertex 0 -4 0
      vertex 2.82843 -2.82843 0
    endloop
  endfacet
  facet normal -0.908501 -0.376312 -0.181698
    outer loop
      vertex -3.53553 -3.53553 5
      vertex -4 0 0
      vertex -2.82843 -2.82843 0
    endloop
  endfacet
  facet normal 0 0 -1
    outer loop
      vertex 1.60755 -0.665869 0
      vertex 4 0 0
      vertex 2.82843 -2.82843 0
    endloop
  endfacet
  facet normal 0 0 -1
    outer loop
      vertex 1.60755 0.665869 0
      vertex 4 0 0
      vertex 1.74 0 0
    endloop
  endfacet
  facet normal -0 0 -1
    outer loop
      vertex 4 0 0
      vertex 1.60755 -0.665869 0
      vertex 1.74 0 0
    endloop
  endfacet
  facet normal 0 0 -1
    outer loop
      vertex 2.82843 -2.82843 0
      vertex 1.23037 -1.23037 0
      vertex 1.60755 -0.665869 0
    endloop
  endfacet
  facet normal 0 0 -1
    outer loop
      vertex 2.82843 -2.82843 0
      vertex 0.665869 -1.60755 0
      vertex 1.23037 -1.23037 0
    endloop
  endfacet
  facet normal 0 0 -1
    outer loop
      vertex 0 -4 0
      vertex 0.665869 -1.60755 0
      vertex 2.82843 -2.82843 0
    endloop
  endfacet
  facet normal 0 0 -1
    outer loop
      vertex 0 -4 0
      vertex 0 -1.74 0
      vertex 0.665869 -1.60755 0
    endloop
  endfacet
  facet normal 0 0 -1
    outer loop
      vertex 0 -4 0
      vertex -0.665869 -1.60755 0
      vertex 0 -1.74 0
    endloop
  endfacet
  facet normal 0 0 -1
    outer loop
      vertex -2.82843 -2.82843 0
      vertex -0.665869 -1.60755 0
      vertex 0 -4 0
    endloop
  endfacet
  facet normal -0 0 -1
    outer loop
      vertex -0.665869 -1.60755 0
      vertex -2.82843 -2.82843 0
      vertex -1.23037 -1.23037 0
    endloop
  endfacet
  facet normal 0 0 -1
    outer loop
      vertex -4 0 0
      vertex -1.60755 -0.665869 0
      vertex -2.82843 -2.82843 0
    endloop
  endfacet
  facet normal -0 0 -1
    outer loop
      vertex -1.23037 -1.23037 0
      vertex -2.82843 -2.82843 0
      vertex -1.60755 -0.665869 0
    endloop
  endfacet
  facet normal 0 0 -1
    outer loop
      vertex 4 0 0
      vertex 1.60755 0.665869 0
      vertex 2.82843 2.82843 0
    endloop
  endfacet
  facet normal 0 0 -1
    outer loop
      vertex 1.23037 1.23037 0
      vertex 2.82843 2.82843 0
      vertex 1.60755 0.665869 0
    endloop
  endfacet
  facet normal 0 0 -1
    outer loop
      vertex 0.665869 1.60755 0
      vertex 2.82843 2.82843 0
      vertex 1.23037 1.23037 0
    endloop
  endfacet
  facet normal 0 0 -1
    outer loop
      vertex 0 4 0
      vertex 0.665869 1.60755 0
      vertex 0 1.74 0
    endloop
  endfacet
  facet normal 0 0 -1
    outer loop
      vertex 0.665869 1.60755 0
      vertex 0 4 0
      vertex 2.82843 2.82843 0
    endloop
  endfacet
  facet normal 0 0 -1
    outer loop
      vertex -0.665869 1.60755 0
      vertex 0 4 0
      vertex 0 1.74 0
    endloop
  endfacet
  facet normal 0 0 -1
    outer loop
      vertex -2.82843 2.82843 0
      vertex -0.665869 1.60755 0
      vertex -1.23037 1.23037 0
    endloop
  endfacet
  facet normal 0 0 -1
    outer loop
      vertex -2.82843 2.82843 0
      vertex -1.23037 1.23037 0
      vertex -1.60755 0.665869 0
    endloop
  endfacet
  facet normal 0 0 -1
    outer loop
      vertex -1.60755 -0.665869 0
      vertex -4 0 0
      vertex -1.74 0 0
    endloop
  endfacet
  facet normal 0 0 -1
    outer loop
      vertex -0.665869 1.60755 0
      vertex -2.82843 2.82843 0
      vertex 0 4 0
    endloop
  endfacet
  facet normal 0 0 -1
    outer loop
      vertex -1.74 0 0
      vertex -4 0 0
      vertex -1.60755 0.665869 0
    endloop
  endfacet
  facet normal -0 0 -1
    outer loop
      vertex -1.60755 0.665869 0
      vertex -4 0 0
      vertex -2.82843 2.82843 0
    endloop
  endfacet
  facet normal -0.908501 0.376312 -0.181698
    outer loop
      vertex -2.82843 2.82843 0
      vertex -4 0 0
      vertex -3.53553 3.53553 5
    endloop
  endfacet
  facet normal -0.9085 -0.376314 -0.1817
    outer loop
      vertex -3.53553 -3.53553 5
      vertex -5 0 5
      vertex -4 0 0
    endloop
  endfacet
  facet normal -0.382685 -0.923879 0
    outer loop
      vertex -3.53553 -3.53553 5
      vertex 0 -5 14
      vertex -3.53553 -3.53553 14
    endloop
  endfacet
  facet normal -0.382685 -0.923879 -0
    outer loop
      vertex 0 -5 14
      vertex -3.53553 -3.53553 5
      vertex 0 -5 5
    endloop
  endfacet
  facet normal -0.376312 0.908501 -0.181698
    outer loop
      vertex -2.82843 2.82843 0
      vertex -3.53553 3.53553 5
      vertex 0 4 0
    endloop
  endfacet
endsolid OpenSCAD_Model
